<svg width="83" height="25" viewBox="0 0 83 25" fill="none" xmlns="http://www.w3.org/2000/svg">
<path d="M33.2559 19.8578C34.6184 19.8578 35.7236 20.963 35.7236 22.3256C35.7236 23.6881 34.6184 24.7933 33.2559 24.7933C31.8935 24.7932 30.7881 23.688 30.7881 22.3256C30.7881 20.9631 31.8925 19.8579 33.2559 19.8578ZM43.8857 19.8578C44.4817 19.8578 45.0285 20.0683 45.4551 20.4203L45.6621 19.972H46.3545V24.6742H45.6621L45.4561 24.2289C45.0295 24.5818 44.4827 24.7933 43.8857 24.7933C42.5234 24.7931 41.418 23.6879 41.418 22.3256C41.418 20.9632 42.5225 19.858 43.8857 19.8578ZM55.8564 19.8578C57.219 19.8578 58.3242 20.963 58.3242 22.3256C58.3242 23.6881 57.2189 24.7933 55.8564 24.7933C54.494 24.7933 53.3887 23.688 53.3887 22.3256C53.3887 20.9631 54.493 19.8578 55.8564 19.8578ZM66.5596 19.8539C67.6585 19.8539 68.3651 20.4462 68.3828 21.3617H67.4668C67.4491 20.9091 67.0831 20.6732 66.543 20.6732C66.0028 20.6732 65.6709 20.8997 65.6709 21.2396C65.6709 21.6587 66.1594 21.7449 66.7266 21.8324C67.5199 21.9721 68.487 22.1206 68.4873 23.2797C68.4873 24.1942 67.7292 24.7875 66.5781 24.7875C65.4272 24.7874 64.6774 24.1599 64.6514 23.184H65.6016C65.6276 23.6813 66.047 23.934 66.6133 23.934C67.1272 23.9338 67.5283 23.7156 67.5283 23.3236C67.5281 22.8787 67.0227 22.774 66.4473 22.6781C65.6622 22.5477 64.7383 22.3644 64.7383 21.2748C64.7384 20.4293 65.4608 19.854 66.5596 19.8539ZM48.9941 19.9662H50.377V20.7914H48.9941V22.9281H48.9951C48.9951 23.4841 49.2994 23.7972 49.873 23.7972H50.4023V24.6742L49.6904 24.6976C48.6651 24.6976 48.0303 24.0634 48.0303 23.0287V20.7904H47.3262V20.6058L48.6846 18.8685H48.9941V19.9662ZM21.0127 20.4213C21.4475 20.0712 21.9981 19.8598 22.5996 19.8597L22.5986 19.8607C23.5607 19.8607 24.3418 20.6409 24.3418 21.6029V24.6752H23.3779V21.8119C23.3779 21.2429 22.9157 20.7807 22.3467 20.7806C21.6185 20.7806 21.0284 21.3708 21.0283 22.099V24.6752H20.0615V19.8597H20.7529L21.0127 20.4213ZM26.6104 20.4213C27.0453 20.0711 27.5957 19.8597 28.1973 19.8597L28.1963 19.8607C29.1582 19.8609 29.9385 20.6409 29.9385 21.6029V24.6752H28.9746V21.8119C28.9746 21.2429 28.5124 20.7806 27.9434 20.7806C27.2153 20.7808 26.6251 21.3709 26.625 22.099V24.6752H25.6582V19.8597H26.3506L26.6104 20.4213ZM38.5977 23.2084L40.1094 19.9672H41.1621L38.9668 24.6752H38.2305L36.0342 19.9672H37.0879L38.5977 23.2084ZM52.4023 24.6752H51.4385V20.7914H52.4023V24.6752ZM60.1025 19.8597L60.3623 20.4213C60.7972 20.0711 61.3476 19.8597 61.9492 19.8597L61.9482 19.8607C62.9103 19.8608 63.6904 20.6409 63.6904 21.6029V24.6752H62.7266V21.8119C62.7266 21.2429 62.2643 20.7806 61.6953 20.7806C60.9673 20.7809 60.3771 21.371 60.377 22.099V24.6752H59.4102V19.8597H60.1025ZM18.5762 24.6742H17.6113V18.8685H18.5762V24.6742ZM33.2559 20.8217C32.4252 20.8218 31.752 21.4949 31.752 22.3256C31.752 23.1562 32.4252 23.8293 33.2559 23.8295C34.0866 23.8295 34.7597 23.1563 34.7598 22.3256C34.7598 21.4948 34.0866 20.8217 33.2559 20.8217ZM43.8857 20.8217C43.0552 20.8219 42.3818 21.495 42.3818 22.3256C42.3819 23.1561 43.0552 23.8292 43.8857 23.8295C44.7165 23.8295 45.3906 23.1563 45.3906 22.3256C45.3906 21.4948 44.7165 20.8217 43.8857 20.8217ZM55.8564 20.8217C55.0257 20.8217 54.3525 21.4948 54.3525 22.3256C54.3526 23.1563 55.0257 23.8294 55.8564 23.8295C56.6872 23.8295 57.3603 23.1563 57.3604 22.3256C57.3604 21.4948 56.6872 20.8217 55.8564 20.8217ZM52.4023 19.9642H51.4385V18.8685H52.4023V19.9642Z" fill="currentcolor"/>
<path d="M16.9443 15.522H13.4248L8.86035 5.73486L4.29688 15.522H0.777344L7.64551 0.793457H10.0752L16.9443 15.522ZM30.5352 10.3423V0.793457H33.7539V15.52L30.5342 15.522L23.0752 5.97314V15.52H19.8564V0.793457H23.0752L30.5352 10.3423ZM40.6367 15.522H37.417V0.793457H40.6367V15.522ZM45.1953 8.15771L50.9492 15.522H46.9014L41.1514 8.15283L46.9014 0.793457H50.9492L45.1953 8.15771ZM66.2559 0.794434V3.74561H56.7314V6.68213H64.2432V9.63232H56.7314V12.5708H66.2559V15.522L53.5127 15.521V0.793457L66.2559 0.794434ZM77.6113 0.793457C80.4376 0.793609 82.7293 3.08533 82.7295 5.91162C82.7295 8.16809 81.2675 10.0803 79.2402 10.7612H79.2412L82.959 15.52H78.9111L73.1611 8.15186H77.5957C78.8323 8.15159 79.835 7.14825 79.835 5.91162C79.8348 4.67516 78.8322 3.67263 77.5957 3.67236H72.3984V15.522H69.1787V0.793457H77.6113Z" fill="currentcolor"/>
</svg>
